<svg xmlns="http://www.w3.org/2000/svg" viewBox="0 0 1032 1072" role="img" aria-label="Vector logo">
  <path fill="#00f5f5" fill-rule="evenodd" d="M4.0 4.0 L645.0 4.0 L820.0 165.0 L156.0 882.0 L4.0 881.0 Z M830.0 260.0 L1028.0 260.0 L1028.0 816.0 L1016.0 830.0 L793.0 1068.0 L81.0 1068.0 Z M76.0 75.0 L75.0 811.0 L127.0 811.0 L186.0 748.0 L187.0 180.0 L545.0 179.0 L596.0 226.0 L548.0 280.0 L515.0 250.0 L257.0 250.0 L258.0 669.0 L720.0 169.0 L616.0 75.0 Z M861.0 330.0 L846.0 345.0 L846.0 755.0 L840.0 762.0 L716.0 893.0 L401.0 891.0 L465.0 822.0 L687.0 822.0 L774.0 730.0 L774.0 423.0 L241.0 997.0 L763.0 997.0 L946.0 802.0 L957.0 789.0 L956.0 331.0 Z"/>
</svg>
