<svg xmlns="http://www.w3.org/2000/svg" version="1.0" width="1278.000000pt" height="799.000000pt" viewBox="0 0 1278.000000 799.000000" preserveAspectRatio="xMidYMid meet">
<metadata>
Created by potrace 1.16, written by Peter Selinger 2001-2019
</metadata>
<g transform="translate(0.000000,799.000000) scale(0.100000,-0.100000)" fill="#000000" stroke="none">
<path d="M9515 7358 c-15 -49 -55 -264 -55 -293 0 -11 111 -89 445 -312 97 -66 174 -90 324 -103 63 -5 116 -8 118 -7 1 2 -14 32 -35 66 -97 165 -328 410 -500 531 -100 70 -260 170 -273 170 -5 0 -15 -24 -24 -52z" fill="#30D158" />
<path d="M8750 7251 c-44 -166 -57 -522 -25 -706 22 -127 70 -266 151 -432 50 -106 62 -137 55 -155 -14 -36 -142 -178 -223 -248 -130 -113 -254 -183 -403 -229 -184 -57 -98 -54 -1455 -61 -1113 -6 -1264 -9 -1337 -23 -255 -52 -504 -173 -707 -345 l-69 -58 -89 66 c-387 291 -836 415 -1291 355 -173 -23 -273 -52 -637 -188 -544 -203 -665 -235 -915 -244 -246 -8 -403 26 -630 138 -207 102 -400 259 -519 422 -35 47 -53 64 -60 57 -7 -7 -11 -89 -11 -228 1 -206 2 -225 33 -367 73 -342 147 -534 289 -750 115 -174 210 -279 375 -415 217 -179 425 -284 712 -360 182 -49 309 -64 521 -64 334 0 616 64 910 207 207 101 326 180 571 377 72 58 171 134 219 169 l88 63 -6 -32 c-4 -18 -12 -84 -18 -149 -30 -325 49 -638 230 -907 84 -125 163 -208 385 -403 222 -195 266 -242 306 -325 78 -165 95 -269 85 -506 -4 -96 -8 -193 -9 -215 -1 -44 -23 -25 289 -255 226 -168 838 -627 995 -748 l145 -111 419 -1 418 0 -7 47 c-23 153 -124 297 -255 363 -69 35 -96 41 -222 49 l-116 7 -224 214 c-337 323 -708 693 -708 707 0 7 24 79 54 160 167 459 189 920 62 1293 -96 284 -319 523 -663 711 -62 33 -113 64 -113 69 0 4 18 46 40 94 l40 87 88 -47 c121 -65 294 -176 367 -234 210 -168 357 -385 450 -662 56 -168 74 -258 82 -408 4 -88 9 -118 21 -127 12 -10 79 -13 258 -13 l243 0 52 100 c28 55 75 133 104 173 55 75 85 103 345 327 85 74 192 167 237 207 46 40 86 73 91 73 11 0 142 -134 141 -145 0 -6 -53 -55 -117 -111 -64 -56 -182 -158 -262 -227 -269 -232 -295 -268 -408 -552 -89 -224 -311 -733 -450 -1035 l-30 -65 191 -195 c106 -107 197 -196 202 -198 6 -1 163 244 350 545 187 301 397 639 468 751 70 113 127 209 127 213 0 4 26 10 58 14 408 44 678 133 972 318 308 194 530 416 890 891 296 391 396 496 550 575 175 90 280 110 645 120 378 12 470 28 645 116 153 76 259 171 355 316 48 73 104 190 105 219 0 10 -45 34 -132 71 -73 31 -254 107 -402 170 -350 148 -322 122 -516 458 -73 126 -217 249 -374 320 -149 67 -363 117 -639 150 -193 23 -73 -45 -911 514 -236 158 -437 287 -447 287 -13 0 -21 -12 -29 -39z m2019 -1421 c76 -38 110 -104 98 -191 -12 -94 -103 -167 -194 -156 -88 10 -173 100 -173 184 0 133 151 224 269 163z" fill="#30D158" />
<path d="M8882 2780 c-84 -38 -194 -84 -245 -101 -105 -35 -348 -99 -377 -99 -11 0 -20 -3 -20 -7 0 -5 46 -37 103 -73 56 -35 148 -94 204 -130 l102 -67 -187 -120 c-292 -188 -280 -184 -411 -148 -41 11 -81 15 -108 11 -52 -7 -130 -45 -178 -87 -41 -36 -150 -196 -191 -282 -25 -50 -26 -59 -14 -68 29 -18 296 -100 395 -120 116 -24 275 -22 361 5 69 22 741 410 864 500 88 64 150 190 150 306 0 62 -25 155 -57 210 -34 60 -227 340 -233 339 -3 0 -74 -31 -158 -69z" fill="#30D158" />
</g>
</svg>